<mxfile host="app.diagrams.net" agent="Mozilla/5.0 (Windows NT 10.0; Win64; x64) AppleWebKit/537.36 (KHTML, like Gecko) Chrome/134.0.0.0 Safari/537.36" version="26.1.1">
  <diagram name="第 1 页" id="7Y3RMGJmRYGK-CS497bg">
    <mxGraphModel dx="1434" dy="738" grid="1" gridSize="10" guides="1" tooltips="1" connect="1" arrows="1" fold="1" page="1" pageScale="1" pageWidth="827" pageHeight="1169" math="0" shadow="0">
      <root>
        <mxCell id="0" />
        <mxCell id="1" parent="0" />
        <mxCell id="title" value="&lt;b&gt;&lt;font style=&quot;font-size: 20px;&quot;&gt;诊断报告配置关系&lt;/font&gt;&lt;/b&gt;" style="text;html=1;strokeColor=none;fillColor=none;align=center;verticalAlign=middle;whiteSpace=wrap;rounded=0;" vertex="1" parent="1">
          <mxGeometry x="240" y="20" width="380" height="30" as="geometry" />
        </mxCell>
        <mxCell id="report-container" value="&lt;b&gt;vehicle.diagnosis.template&lt;/b&gt;" style="rounded=0;whiteSpace=wrap;html=1;fontSize=14;fillColor=#dae8fc;strokeColor=#6c8ebf;strokeWidth=2;align=center;verticalAlign=top;dashed=1;" vertex="1" parent="1">
          <mxGeometry x="100" y="80" width="790" height="680" as="geometry" />
        </mxCell>
        <mxCell id="report-header" value="&lt;b&gt;对车辆 $vin 在时间范围 $startTime ~ $endTime 之间车机系统的分析诊断报告如下：&lt;/b&gt;" style="rounded=0;whiteSpace=wrap;html=1;fontSize=12;fillColor=#f5f5f5;strokeColor=#666666;strokeWidth=1;" vertex="1" parent="1">
          <mxGeometry x="140" y="120" width="710" height="40" as="geometry" />
        </mxCell>
        <mxCell id="vehicle-info" value="&lt;b&gt;车辆基本信息：&lt;br&gt;车机平台：$veh_platform； 车机配置：$car_config； 车辆用途：$purpose_describe；&lt;br&gt;车系名称：$veh_series_no_name； OTA版本：$firmware_version；&lt;/b&gt;" style="rounded=0;whiteSpace=wrap;html=1;fontSize=12;fillColor=#f5f5f5;strokeColor=#666666;strokeWidth=1;" vertex="1" parent="1">
          <mxGeometry x="140" y="180" width="710" height="60" as="geometry" />
        </mxCell>
        <mxCell id="ai-content-area" value="&lt;b&gt;$aiContent&lt;/b&gt;" style="rounded=0;whiteSpace=wrap;html=1;fontSize=14;fillColor=#d5e8d4;strokeColor=#82b366;strokeWidth=2;align=center;verticalAlign=top;dashed=1;" vertex="1" parent="1">
          <mxGeometry x="140" y="260" width="710" height="200" as="geometry" />
        </mxCell>
        <mxCell id="system-prompt" value="&lt;b&gt;MindGpt.vehicleDiagnosis.prompt&lt;br&gt;(system提示词)&lt;/b&gt;" style="rounded=1;whiteSpace=wrap;html=1;fontSize=12;fillColor=#fff2cc;strokeColor=#d6b656;strokeWidth=2;" vertex="1" parent="1">
          <mxGeometry x="180" y="290" width="160" height="50" as="geometry" />
        </mxCell>
        <mxCell id="json-prompt" value="&lt;b&gt;MindGpt.vehicleDiagnosis.JSONprompt&lt;br&gt;(业务知识提示词)&lt;/b&gt;" style="rounded=1;whiteSpace=wrap;html=1;fontSize=12;fillColor=#fff2cc;strokeColor=#d6b656;strokeWidth=2;" vertex="1" parent="1">
          <mxGeometry x="414" y="290" width="160" height="50" as="geometry" />
        </mxCell>
        <mxCell id="exclude-prompt" value="&lt;b&gt;vehicle.diagnosis.exclude.jsonprompt&lt;br&gt;(排除业务数据)&lt;/b&gt;" style="rounded=1;whiteSpace=wrap;html=1;fontSize=12;fillColor=#fff2cc;strokeColor=#d6b656;strokeWidth=2;" vertex="1" parent="1">
          <mxGeometry x="660" y="290" width="160" height="50" as="geometry" />
        </mxCell>
        <mxCell id="model-selection" value="&lt;b&gt;vehicle.diagnosis.model&lt;br&gt;(选择模型)&lt;/b&gt;" style="rounded=1;whiteSpace=wrap;html=1;fontSize=12;fillColor=#fff2cc;strokeColor=#d6b656;strokeWidth=2;" vertex="1" parent="1">
          <mxGeometry x="414" y="360" width="160" height="50" as="geometry" />
        </mxCell>
        <mxCell id="ai-result" value="&lt;b&gt;aiContent结果&lt;/b&gt;" style="rounded=1;whiteSpace=wrap;html=1;fontSize=12;fillColor=#e1d5e7;strokeColor=#9673a6;strokeWidth=2;" vertex="1" parent="1">
          <mxGeometry x="325" y="440" width="340" height="40" as="geometry" />
        </mxCell>
        <mxCell id="detail-title" value="&lt;b&gt;### 异常诊断详情&lt;/b&gt;" style="rounded=0;whiteSpace=wrap;html=1;fontSize=14;fillColor=#f5f5f5;strokeColor=#666666;strokeWidth=1;" vertex="1" parent="1">
          <mxGeometry x="140" y="480" width="710" height="40" as="geometry" />
        </mxCell>
        <mxCell id="detail-data-area" value="&lt;b&gt;$finalDetailData&lt;/b&gt;" style="rounded=0;whiteSpace=wrap;html=1;fontSize=14;fillColor=#d5e8d4;strokeColor=#82b366;strokeWidth=2;align=center;verticalAlign=top;dashed=1;" vertex="1" parent="1">
          <mxGeometry x="140" y="540" width="710" height="200" as="geometry" />
        </mxCell>
        <mxCell id="cpu-template" value="&lt;b&gt;cpu_diagnosis_report_template&lt;br&gt;(4个CPU数据模板)&lt;/b&gt;" style="rounded=1;whiteSpace=wrap;html=1;fontSize=12;fillColor=#fff2cc;strokeColor=#d6b656;strokeWidth=2;" vertex="1" parent="1">
          <mxGeometry x="400" y="580" width="160" height="50" as="geometry" />
        </mxCell>
        <mxCell id="memory-template" value="&lt;b&gt;memory_diagnosis_report_template&lt;br&gt;(4个内存数据模板)&lt;/b&gt;" style="rounded=1;whiteSpace=wrap;html=1;fontSize=12;fillColor=#fff2cc;strokeColor=#d6b656;strokeWidth=2;" vertex="1" parent="1">
          <mxGeometry x="400" y="630" width="160" height="50" as="geometry" />
        </mxCell>
        <mxCell id="custom-diagnosis" value="&lt;b&gt;crs.data.diagnosis&lt;br&gt;(自定义诊断项)&lt;/b&gt;" style="rounded=1;whiteSpace=wrap;html=1;fontSize=12;fillColor=#fff2cc;strokeColor=#d6b656;strokeWidth=2;" vertex="1" parent="1">
          <mxGeometry x="310" y="680" width="340" height="50" as="geometry" />
        </mxCell>
      </root>
    </mxGraphModel>
  </diagram>
</mxfile>
